<svg width="35" height="35" viewBox="0 0 35 35" fill="none" xmlns="http://www.w3.org/2000/svg">
<path d="M11.9754 15.9242L2.97564 24.924C2.29833 25.6013 2.29833 26.6995 2.97564 27.3768L7.18445 31.5856C7.86175 32.2629 8.95989 32.2629 9.6372 31.5856L18.637 22.5858C19.3143 21.9085 19.3143 20.8104 18.637 20.133L14.4282 15.9242C13.7509 15.2469 12.6527 15.2469 11.9754 15.9242Z" fill="#23DDBE"/>
<path d="M10.2262 1.22649L1.22637 10.2263C0.549067 10.9036 0.549067 12.0017 1.22637 12.679L5.43518 16.8878C6.11249 17.5651 7.21062 17.5651 7.88793 16.8878L16.8877 7.88804C17.565 7.21073 17.565 6.1126 16.8877 5.43529L12.6789 1.22649C12.0016 0.549178 10.9035 0.549178 10.2262 1.22649Z" fill="#FFB21C"/>
<path d="M26.5601 17.5575L17.5604 26.5573C16.8831 27.2346 16.8831 28.3328 17.5604 29.0101L21.7692 33.2189C22.4465 33.8962 23.5446 33.8962 24.2219 33.2189L33.2217 24.2191C33.899 23.5418 33.899 22.4437 33.2217 21.7663L29.0129 17.5575C28.3356 16.8802 27.2374 16.8802 26.5601 17.5575Z" fill="#FE4A75"/>
<path d="M24.9865 2.9091L15.9868 11.9089C15.3094 12.5862 15.3094 13.6843 15.9868 14.3616L20.1956 18.5704C20.8729 19.2477 21.971 19.2477 22.6483 18.5704L31.6481 9.57065C32.3254 8.89335 32.3254 7.79521 31.6481 7.11791L27.4393 2.9091C26.762 2.23179 25.6638 2.23179 24.9865 2.9091Z" fill="#5E5CCE"/>
</svg>
