<!-- Generated by IcoMoon.io -->
<svg version="1.1" xmlns="http://www.w3.org/2000/svg" width="448" height="448" viewBox="0 0 448 448">
<title></title>
<g id="icomoon-ignore">
</g>
<path fill="#000" d="M448 352v96h-448v-96c24.5 0 37.5-11 47.75-19.75 8.5-7.5 14.25-12.25 27-12.25s18.25 4.75 27 12.25c10.25 8.75 23 19.75 47.75 19.75 24.5 0 37.25-11 47.75-19.75 8.5-7.5 14-12.25 26.75-12.25s18.5 4.75 27 12.25c10.25 8.75 23.25 19.75 47.75 19.75s37.5-11 47.75-19.75c8.5-7.5 14.25-12.25 27-12.25 12.5 0 18.25 4.75 26.75 12.25 10.25 8.75 23.25 19.75 47.75 19.75zM448 272v48c-12.75 0-18.25-4.75-27-12.25-10.25-8.75-23-19.75-47.5-19.75-24.75 0-37.5 11-47.75 19.75-8.75 7.5-14.25 12.25-27 12.25s-18.5-4.75-27-12.25c-10.25-8.75-23-19.75-47.75-19.75-24.5 0-37.25 11-47.75 19.75-8.5 7.5-14 12.25-26.75 12.25s-18.5-4.75-27-12.25c-10.25-8.75-23.25-19.75-47.75-19.75-24.75 0-37.5 11-47.75 19.75-8.5 7.5-14.25 12.25-27 12.25v-48c0-26.5 21.5-48 48-48h16v-112h64v112h64v-112h64v112h64v-112h64v112h16c26.5 0 48 21.5 48 48zM128 56c0 26.5-14.25 40-32 40s-32-14.25-32-32c0-31 32-23 32-64 12 0 32 29.5 32 56zM256 56c0 26.5-14.25 40-32 40s-32-14.25-32-32c0-31 32-23 32-64 12 0 32 29.5 32 56zM384 56c0 26.5-14.25 40-32 40s-32-14.25-32-32c0-31 32-23 32-64 12 0 32 29.5 32 56z"></path>
</svg>
