<!-- Generated by IcoMoon.io -->
<svg version="1.1" xmlns="http://www.w3.org/2000/svg" width="512" height="512" viewBox="0 0 512 512">
<title></title>
<g id="icomoon-ignore">
</g>
<path d="M0 512v-48c0-71.744 90.384-98.864 209.584-109.792-26.176-16.224-46.72-61.824-57.424-98.24-0.048 0-0.096 0.032-0.16 0.032-1.088 0-24-28.656-24-64 0-31.008-2.208-56.864 16.112-62.72-0.016-0.432-0.112-0.848-0.112-1.28 0-39.312 20.336-73.76 50.992-93.744 7.92-19.76 32.064-34.256 61.008-34.256s53.088 14.496 61.008 34.256c30.656 19.984 50.992 54.432 50.992 93.744 0 0.432-0.096 0.848-0.112 1.28 18.32 5.856 16.112 31.712 16.112 62.72 0 35.344-25.408 64-24 64-0.064 0-0.112-0.032-0.16-0.032-10.704 36.4-31.248 82.016-57.424 98.24 119.2 10.928 209.584 37.040 209.584 109.792v48h-512z"></path>
</svg>
