<?xml version="1.0" encoding="UTF-8" standalone="no"?>
<!-- Created with Inkscape (http://www.inkscape.org/) -->

<svg
   sodipodi:docname="Þorvaldur Daði.svg"
   id="svg5"
   version="1.1"
   viewBox="0 0 210 297"
   height="297mm"
   width="210mm"
   inkscape:version="1.1 (c68e22c387, 2021-05-23)"
   xmlns:inkscape="http://www.inkscape.org/namespaces/inkscape"
   xmlns:sodipodi="http://sodipodi.sourceforge.net/DTD/sodipodi-0.dtd"
   xmlns="http://www.w3.org/2000/svg"
   xmlns:svg="http://www.w3.org/2000/svg">
  <sodipodi:namedview
     id="namedview7"
     pagecolor="#ffffff"
     bordercolor="#666666"
     borderopacity="1.0"
     inkscape:pageshadow="2"
     inkscape:pageopacity="0.0"
     inkscape:pagecheckerboard="0"
     inkscape:document-units="mm"
     showgrid="false"
     inkscape:snap-others="true"
     inkscape:snap-object-midpoints="true"
     inkscape:snap-page="false"
     inkscape:snap-intersection-paths="false"
     inkscape:object-paths="true"
     inkscape:zoom="0.74118967"
     inkscape:cx="221.94049"
     inkscape:cy="393.28664"
     inkscape:window-width="1920"
     inkscape:window-height="1017"
     inkscape:window-x="-8"
     inkscape:window-y="-8"
     inkscape:window-maximized="1"
     inkscape:current-layer="layer1"
     inkscape:snap-to-guides="true"
     showguides="true"
     inkscape:guide-bbox="true">
    <sodipodi:guide
       position="24.358213,246.24847"
       orientation="1,0"
       id="guide6849" />
    <sodipodi:guide
       position="28.299999,246.22001"
       orientation="0,-1"
       id="guide7019" />
    <sodipodi:guide
       position="21.418269,204.27675"
       orientation="0,-1"
       id="guide7023" />
  </sodipodi:namedview>
  <defs
     id="defs2" />
  <g
     inkscape:label="Layer 1"
     inkscape:groupmode="layer"
     id="layer1">
    <g
       id="panel8823">
      <path
         style="fill:none;stroke:#000000;stroke-width:1"
         d="M 36.4 109.9 L 43.2143 109.9 L 43.2143 106.8 L 49.4143 106.8 L 49.4143 109.9 L 56.1286 109.9 L 56.1286 106.8 L 62.3286 106.8 L 62.3286 109.9 L 69.0429 109.9 L 69.0429 106.8 L 75.2429 106.8 L 75.2429 109.9 L 81.9571 109.9 L 81.9571 106.8 L 88.1571 106.8 L 88.1571 109.9 L 94.8714 109.9 L 94.8714 106.8 L 101.071 106.8 L 101.071 109.9 L 107.786 109.9 L 107.786 106.8 L 113.986 106.8 L 113.986 109.9 L 120.8 109.9"
         id="path5508" />
      <path
         style="fill:none;stroke:#000000;stroke-width:1"
         d="M 120.8 109.9 L 120.8 117.1 L 117.7 117.1 L 117.7 122.9 L 120.8 122.9 L 120.8 130.1"
         id="path5516" />
      <path
         style="fill:none;stroke:#000000;stroke-width:1"
         d="M 120.8,130.1 H 36.4"
         id="path5518"
         sodipodi:nodetypes="cc" />
      <path
         style="fill:none;stroke:#000000;stroke-width:1"
         d="M 36.4 130.1 L 36.4 122.9 L 39.5 122.9 L 39.5 117.1 L 36.4 117.1 L 36.4 109.9"
         id="path5520" />
    </g>
    <g
       id="panel5782">
      <path
         style="fill:none;stroke:#000000;stroke-width:1"
         d="M 8.1 39.5 L 15.1 39.5 L 15.1 36.4 L 21.3 36.4 L 21.3 39.5 L 28.3 39.5"
         id="path5523" />
      <path
         style="fill:none;stroke:#000000;stroke-width:1"
         d="M 28.3 39.5 L 28.3 44.58 L 31.4 44.58 L 31.4 50.78 L 28.3 50.78 L 28.3 58.86 L 31.4 58.86 L 31.4 65.06 L 28.3 65.06 L 28.3 73.14 L 31.4 73.14 L 31.4 79.34 L 28.3 79.34 L 28.3 87.42 L 31.4 87.42 L 31.4 93.62 L 28.3 93.62 L 28.3 98.7"
         id="path5525" />
      <path
         style="fill:none;stroke:#000000;stroke-width:1"
         d="M 28.3 98.7 L 21.3 98.7 L 21.3 101.8 L 15.1 101.8 L 15.1 98.7 L 8.1 98.7"
         id="path5527" />
      <path
         style="fill:none;stroke:#000000;stroke-width:1"
         d="M 8.1,98.7 V 93.62 H 5 v -6.2 H 8.1 V 79.34 H 5 V 58.86 H 8.1 V 50.78 H 5 v -6.2 H 8.1 V 39.5"
         id="path5529"
         sodipodi:nodetypes="cccccccccccccc" />
    </g>
    <g
       id="panel3176">
      <path
         style="fill:none;stroke:#000000;stroke-width:1"
         d="M 3.1 172.7 L 10.1 172.7 L 10.1 169.6 L 16.3 169.6 L 16.3 172.7 L 23.3 172.7"
         id="path5532" />
      <path
         style="fill:none;stroke:#000000;stroke-width:1"
         d="M 23.3 172.7 L 23.3 177.78 L 23.3 177.78 L 23.3 183.98 L 23.3 183.98 L 23.3 192.06 L 23.3 192.06 L 23.3 198.26 L 23.3 198.26 L 23.3 206.34 L 23.3 206.34 L 23.3 212.54 L 23.3 212.54 L 23.3 220.62 L 23.3 220.62 L 23.3 226.82 L 23.3 226.82 L 23.3 231.9"
         id="path5534" />
      <path
         style="fill:none;stroke:#000000;stroke-width:1"
         d="M 23.3 231.9 L 16.3 231.9 L 16.3 235 L 10.1 235 L 10.1 231.9 L 3.1 231.9"
         id="path5536" />
      <path
         style="fill:none;stroke:#000000;stroke-width:1"
         d="M 3.1 231.9 L 3.1 226.82 L 3.1 226.82 L 3.1 220.62 L 3.1 220.62 L 3.1 212.54 L 3.1 212.54 L 3.1 206.34 L 3.1 206.34 L 3.1 198.26 L 3.1 198.26 L 3.1 192.06 L 3.1 192.06 L 3.1 183.98 L 3.1 183.98 L 3.1 177.78 L 3.1 177.78 L 3.1 172.7"
         id="path5538" />
    </g>
    <g
       id="panel1869">
      <path
         style="fill:none;stroke:#000000;stroke-width:1"
         d="M 34.5 172.7 L 41.5 172.7 L 41.5 169.6 L 47.7 169.6 L 47.7 172.7 L 54.7 172.7"
         id="path5541" />
      <path
         style="fill:none;stroke:#000000;stroke-width:1"
         d="M 54.7 172.7 L 54.7 177.78 L 54.7 177.78 L 54.7 183.98 L 54.7 183.98 L 54.7 192.06 L 54.7 192.06 L 54.7 198.26 L 54.7 198.26 L 54.7 206.34 L 54.7 206.34 L 54.7 212.54 L 54.7 212.54 L 54.7 220.62 L 54.7 220.62 L 54.7 226.82 L 54.7 226.82 L 54.7 231.9"
         id="path5543" />
      <path
         style="fill:none;stroke:#000000;stroke-width:1"
         d="M 54.7 231.9 L 47.7 231.9 L 47.7 235 L 41.5 235 L 41.5 231.9 L 34.5 231.9"
         id="path5545" />
      <path
         style="fill:none;stroke:#000000;stroke-width:1"
         d="M 34.5 231.9 L 34.5 226.82 L 34.5 226.82 L 34.5 220.62 L 34.5 220.62 L 34.5 212.54 L 34.5 212.54 L 34.5 206.34 L 34.5 206.34 L 34.5 198.26 L 34.5 198.26 L 34.5 192.06 L 34.5 192.06 L 34.5 183.98 L 34.5 183.98 L 34.5 177.78 L 34.5 177.78 L 34.5 172.7"
         id="path5547" />
    </g>
    <g
       id="panel6006">
      <path
         style="fill:none;stroke:#000000;stroke-width:1"
         d="M 65.9 172.7 L 72.9 172.7 L 72.9 169.6 L 79.1 169.6 L 79.1 172.7 L 86.1 172.7"
         id="path5550" />
      <path
         style="fill:none;stroke:#000000;stroke-width:1"
         d="M 86.1 172.7 L 86.1 177.78 L 86.1 177.78 L 86.1 183.98 L 86.1 183.98 L 86.1 192.06 L 86.1 192.06 L 86.1 198.26 L 86.1 198.26 L 86.1 206.34 L 86.1 206.34 L 86.1 212.54 L 86.1 212.54 L 86.1 220.62 L 86.1 220.62 L 86.1 226.82 L 86.1 226.82 L 86.1 231.9"
         id="path5552" />
      <path
         style="fill:none;stroke:#000000;stroke-width:1"
         d="M 86.1 231.9 L 79.1 231.9 L 79.1 235 L 72.9 235 L 72.9 231.9 L 65.9 231.9"
         id="path5554" />
      <path
         style="fill:none;stroke:#000000;stroke-width:1"
         d="M 65.9 231.9 L 65.9 226.82 L 65.9 226.82 L 65.9 220.62 L 65.9 220.62 L 65.9 212.54 L 65.9 212.54 L 65.9 206.34 L 65.9 206.34 L 65.9 198.26 L 65.9 198.26 L 65.9 192.06 L 65.9 192.06 L 65.9 183.98 L 65.9 183.98 L 65.9 177.78 L 65.9 177.78 L 65.9 172.7"
         id="path5556" />
    </g>
    <g
       id="panel2514">
      <path
         style="fill:none;stroke:#000000;stroke-width:1"
         d="M 36.4 36.4 L 43.4143 36.4 L 43.4143 39.5 L 49.2143 39.5 L 49.2143 36.4 L 56.3286 36.4 L 56.3286 39.5 L 62.1286 39.5 L 62.1286 36.4 L 69.2429 36.4 L 69.2429 39.5 L 75.0429 39.5 L 75.0429 36.4 L 82.1571 36.4 L 82.1571 39.5 L 87.9571 39.5 L 87.9571 36.4 L 95.0714 36.4 L 95.0714 39.5 L 100.871 39.5 L 100.871 36.4 L 107.986 36.4 L 107.986 39.5 L 113.786 39.5 L 113.786 36.4 L 120.8 36.4"
         id="path5559" />
      <path
         style="fill:none;stroke:#000000;stroke-width:1"
         d="M 120.8 36.4 L 120.8 44.78 L 117.7 44.78 L 117.7 50.58 L 120.8 50.58 L 120.8 59.06 L 117.7 59.06 L 117.7 64.86 L 120.8 64.86 L 120.8 73.34 L 117.7 73.34 L 117.7 79.14 L 120.8 79.14 L 120.8 87.62 L 117.7 87.62 L 117.7 93.42 L 120.8 93.42 L 120.8 101.8"
         id="path5561" />
      <path
         style="fill:none;stroke:#000000;stroke-width:1"
         d="M 120.8 101.8 L 113.786 101.8 L 113.786 98.7 L 107.986 98.7 L 107.986 101.8 L 100.871 101.8 L 100.871 98.7 L 95.0714 98.7 L 95.0714 101.8 L 87.9571 101.8 L 87.9571 98.7 L 82.1571 98.7 L 82.1571 101.8 L 75.0429 101.8 L 75.0429 98.7 L 69.2429 98.7 L 69.2429 101.8 L 62.1286 101.8 L 62.1286 98.7 L 56.3286 98.7 L 56.3286 101.8 L 49.2143 101.8 L 49.2143 98.7 L 43.4143 98.7 L 43.4143 101.8 L 36.4 101.8"
         id="path5563" />
      <path
         style="fill:none;stroke:#000000;stroke-width:1"
         d="M 36.4 101.8 L 36.4 93.42 L 39.5 93.42 L 39.5 87.62 L 36.4 87.62 L 36.4 79.14 L 39.5 79.14 L 39.5 73.34 L 36.4 73.34 L 36.4 64.86 L 39.5 64.86 L 39.5 59.06 L 36.4 59.06 L 36.4 50.58 L 39.5 50.58 L 39.5 44.78 L 36.4 44.78 L 36.4 36.4"
         id="path5565" />
    </g>
    <g
       id="panel6480">
      <path
         style="fill:none;stroke:#000000;stroke-width:1"
         d="M 128.9 39.5 L 135.9 39.5 L 135.9 36.4 L 142.1 36.4 L 142.1 39.5 L 149.1 39.5"
         id="path5568" />
      <path
         style="fill:none;stroke:#000000;stroke-width:1"
         d="m 149.1,39.5 v 5.08 h 3.1 v 6.2 h -3.1 v 8.08 h 3.1 v 20.48 h -3.1 v 8.08 h 3.1 v 6.2 h -3.1 v 5.08"
         id="path5570"
         sodipodi:nodetypes="cccccccccccccc" />
      <path
         style="fill:none;stroke:#000000;stroke-width:1"
         d="M 149.1 98.7 L 142.1 98.7 L 142.1 101.8 L 135.9 101.8 L 135.9 98.7 L 128.9 98.7"
         id="path5572" />
      <path
         style="fill:none;stroke:#000000;stroke-width:1"
         d="M 128.9 98.7 L 128.9 93.62 L 125.8 93.62 L 125.8 87.42 L 128.9 87.42 L 128.9 79.34 L 125.8 79.34 L 125.8 73.14 L 128.9 73.14 L 128.9 65.06 L 125.8 65.06 L 125.8 58.86 L 128.9 58.86 L 128.9 50.78 L 125.8 50.78 L 125.8 44.58 L 128.9 44.58 L 128.9 39.5"
         id="path5574" />
    </g>
    <g
       id="panel6585">
      <path
         style="fill:none;stroke:#000000;stroke-width:1"
         d="m 157.2,36.4 h 84.4"
         id="path5577"
         sodipodi:nodetypes="cc" />
      <path
         style="fill:none;stroke:#000000;stroke-width:1"
         d="m 241.6,36.4 2.64583,8.38 H 238.5 v 5.8 h 5.74583 v 8.48 H 238.5 v 20.08 h 5.74583 v 8.48 H 238.5 v 5.8 h 5.74583 L 241.6,101.8"
         id="path5579"
         sodipodi:nodetypes="cccccccccccccc" />
      <path
         style="fill:none;stroke:#000000;stroke-width:1"
         d="M 241.6,101.8 H 157.2"
         id="path5581"
         sodipodi:nodetypes="cc" />
      <path
         style="fill:none;stroke:#000000;stroke-width:1"
         d="m 157.2,101.8 -2.11667,-8.38 H 160.3 v -5.8 h -5.21667 V 79.14 H 160.3 V 59.06 h -5.21667 V 50.58 H 160.3 v -5.8 h -5.21667 L 157.2,36.4"
         id="path5583"
         sodipodi:nodetypes="cccccccccccccc" />
    </g>
    <g
       id="panel1971">
      <path
         style="fill:none;stroke:#000000;stroke-width:1"
         d="m 36.4,8.1 h 84.4"
         id="path5586"
         sodipodi:nodetypes="cc" />
      <path
         style="fill:none;stroke:#000000;stroke-width:1"
         d="M 120.8 8.1 L 120.8 15.3 L 117.7 15.3 L 117.7 21.1 L 120.8 21.1 L 120.8 28.3"
         id="path5594" />
      <path
         style="fill:none;stroke:#000000;stroke-width:1"
         d="M 120.8 28.3 L 113.986 28.3 L 113.986 31.4 L 107.786 31.4 L 107.786 28.3 L 101.071 28.3 L 101.071 31.4 L 94.8714 31.4 L 94.8714 28.3 L 88.1571 28.3 L 88.1571 31.4 L 81.9571 31.4 L 81.9571 28.3 L 75.2429 28.3 L 75.2429 31.4 L 69.0429 31.4 L 69.0429 28.3 L 62.3286 28.3 L 62.3286 31.4 L 56.1286 31.4 L 56.1286 28.3 L 49.4143 28.3 L 49.4143 31.4 L 43.2143 31.4 L 43.2143 28.3 L 36.4 28.3"
         id="path5596" />
      <path
         style="fill:none;stroke:#000000;stroke-width:1"
         d="M 36.4 28.3 L 36.4 21.1 L 39.5 21.1 L 39.5 15.3 L 36.4 15.3 L 36.4 8.1"
         id="path5598" />
    </g>
    <rect
       style="fill:none;stroke:#000000;stroke-width:0.211137;stroke-linecap:round;stroke-linejoin:round;stroke-opacity:1;paint-order:stroke fill markers"
       id="rect6497-2"
       width="68.758286"
       height="9.0795736"
       x="165.13547"
       y="87.915741" />
    <rect
       style="fill:none;stroke:#000000;stroke-width:0.211137;stroke-linecap:round;stroke-linejoin:round;stroke-opacity:1;paint-order:stroke fill markers"
       id="rect6497-2-8"
       width="68.758286"
       height="9.0795736"
       x="165.13547"
       y="44.745422" />
    <rect
       style="fill:none;stroke:#000000;stroke-width:0.178222;stroke-linecap:round;stroke-linejoin:round;stroke-opacity:1;paint-order:stroke fill markers"
       id="rect7151"
       width="11.821778"
       height="13.821778"
       x="12.536434"
       y="50.779991" />
    <rect
       style="fill:none;stroke:#000000;stroke-width:0.20822;stroke-linecap:round;stroke-linejoin:round;stroke-opacity:1;paint-order:stroke fill markers"
       id="rect7153"
       width="12.79178"
       height="10.79178"
       x="11.566433"
       y="81.931473" />
    <text
       xml:space="preserve"
       style="font-style:normal;font-variant:normal;font-weight:normal;font-stretch:normal;font-size:8.46667px;line-height:1.25;font-family:sans-serif;-inkscape-font-specification:sans-serif;stroke-width:0.264583"
       x="169.91824"
       y="73.179085"
       id="text10727"><tspan
         sodipodi:role="line"
         id="tspan10725"
         style="font-style:normal;font-variant:normal;font-weight:normal;font-stretch:normal;font-family:sans-serif;-inkscape-font-specification:sans-serif;stroke-width:0.264583"
         x="169.91824"
         y="73.179085">Totaly expert.</tspan></text>
  </g>
</svg>
